# xmcd
#
# Track frame offsets:
#	150
#	10026
#	21578
#	33945
#	45735
#	55081
#	62538
#	71771
#	82914
#	96052
#	108046
#	119397
#
# Disc length: 1744 seconds
#
# Revision: 0
# Processed by: cddbd v1.5.2PL0 Copyright (c) Steve Scherf et al.
# Submitted via: EZCDAudioConverter 7.0.6.1
#
DISCID=8f06ce0c
DTITLE=Jackie Shane - Any Other Way 1/2
DYEAR=1900
DGENRE=
TTITLE0=Sticks And Stones
TTITLE1=Any Other Way
TTITLE2=In My Tenement
TTITLE3=Comin' Down
TTITLE4=Money (That's What I Want)
TTITLE5=I've Really Got The Blues
TTITLE6=Send Me Some Lovin'
TTITLE7=Walking The Dog
TTITLE8=You Are My Sunshine
TTITLE9=Stand Up Straight And Tall
TTITLE10=New Way Of Lovin'
TTITLE11=Cruel Cruel World
EXTD=
EXTT0=
EXTT1=
EXTT2=
EXTT3=
EXTT4=
EXTT5=
EXTT6=
EXTT7=
EXTT8=
EXTT9=
EXTT10=
EXTT11=
PLAYORDER=
